<?xml version="1.0" encoding="utf-8"?>
<!-- Generator: Adobe Illustrator 25.2.0, SVG Export Plug-In . SVG Version: 6.00 Build 0)  -->
<svg version="1.1" id="Layer_1" xmlns="http://www.w3.org/2000/svg" xmlns:xlink="http://www.w3.org/1999/xlink" x="0px" y="0px"
	 viewBox="0 0 32 32" style="enable-background:new 0 0 32 32;" xml:space="preserve">
<style type="text/css">
	.st0{fill:url(#SVGID_1_);}
	.st1{fill:none;stroke:#00AD00;stroke-width:1.5;stroke-miterlimit:10;}
	.st2{fill:none;stroke:#FF0000;stroke-width:1.5;stroke-miterlimit:10;}
	.st3{fill:none;stroke:#1D1D1B;stroke-width:0.4;stroke-miterlimit:10;}
</style>
<linearGradient id="SVGID_1_" gradientUnits="userSpaceOnUse" x1="1.5987" y1="16" x2="30.3987" y2="16">
	<stop  offset="0.1386" style="stop-color:#FFFFFF"/>
	<stop  offset="0.4619" style="stop-color:#FDFDFD"/>
	<stop  offset="0.5784" style="stop-color:#F6F6F6"/>
	<stop  offset="0.6614" style="stop-color:#EBEBEB"/>
	<stop  offset="0.7286" style="stop-color:#DADADA"/>
	<stop  offset="0.7861" style="stop-color:#C4C4C4"/>
	<stop  offset="0.837" style="stop-color:#A8A8A8"/>
	<stop  offset="0.8832" style="stop-color:#888888"/>
	<stop  offset="0.9255" style="stop-color:#626262"/>
	<stop  offset="0.9631" style="stop-color:#393939"/>
	<stop  offset="0.9982" style="stop-color:#0C0C0C"/>
	<stop  offset="1" style="stop-color:#090909"/>
</linearGradient>
<path class="st0" d="M25.3,30.4H6.7c-2.8,0-5.1-2.3-5.1-5.1V6.7c0-2.8,2.3-5.1,5.1-5.1h18.6c2.7,0,5,2.3,5,5.1v18.6
	C30.4,28.1,28.1,30.4,25.3,30.4z"/>
<path class="st1" d="M1.6,19.1c0,0,0.1,0,0.3,0s5.9,0,5.9,0C11,19.2,10.1,6,11.4,6c0.7,0,1.5,7.9,4.3,12.2c1.3,2,3.7,2.5,5.5,2.5
	c3.6,0,6-1.6,8.1-1.7c0.1,0,0.4,0,0.5,0c0.3,0,0.4,0,0.4,0"/>
<line class="st2" x1="1.6" y1="24.5" x2="30.4" y2="24.5"/>
<path class="st3" d="M25.7,30.3H6.3c-2.6,0-4.7-2.1-4.7-4.7V6.3c0-2.6,2.1-4.7,4.7-4.7h19.3c2.6,0,4.7,2.1,4.7,4.7v19.3
	C30.3,28.2,28.2,30.3,25.7,30.3z"/>
</svg>
