<?xml version="1.0" encoding="utf-8"?>
<!-- Generator: Adobe Illustrator 24.0.1, SVG Export Plug-In . SVG Version: 6.00 Build 0)  -->
<svg version="1.1" id="Layer_1" xmlns="http://www.w3.org/2000/svg" xmlns:xlink="http://www.w3.org/1999/xlink" x="0px" y="0px"
	 viewBox="0 0 32 32" style="enable-background:new 0 0 32 32;" xml:space="preserve">
<style type="text/css">
	.st0{fill:url(#SVGID_1_);}
	.st1{fill:none;stroke:#1E9900;stroke-width:1.5;stroke-miterlimit:10;}
	.st2{fill:none;stroke:#FF1800;stroke-width:1.5;stroke-miterlimit:10;}
</style>
<g>
	
		<radialGradient id="SVGID_1_" cx="16.009" cy="16.018" r="17.4599" fx="2.4931" fy="6.9798" gradientTransform="matrix(0.9832 0.1827 -0.1845 0.9928 3.224 -2.8089)" gradientUnits="userSpaceOnUse">
		<stop  offset="0.1386" style="stop-color:#FFFFFF"/>
		<stop  offset="0.4444" style="stop-color:#FDFDFD"/>
		<stop  offset="0.5546" style="stop-color:#F6F6F6"/>
		<stop  offset="0.6331" style="stop-color:#EBEBEB"/>
		<stop  offset="0.6966" style="stop-color:#DADADA"/>
		<stop  offset="0.751" style="stop-color:#C4C4C4"/>
		<stop  offset="0.7992" style="stop-color:#A8A8A8"/>
		<stop  offset="0.8428" style="stop-color:#888888"/>
		<stop  offset="0.8829" style="stop-color:#626262"/>
		<stop  offset="0.9201" style="stop-color:#373737"/>
		<stop  offset="0.9532" style="stop-color:#090909"/>
		<stop  offset="0.9593" style="stop-color:#000000"/>
	</radialGradient>
	<circle class="st0" cx="16" cy="16" r="16"/>
	<g>
		<path class="st1" d="M0.2,18.3l0.3,0h1.6c0,0,3.6,0,4.5-0.7C9.8,15,10.7,3.7,12.3,3.7c1.7,0,2.2,11,3.9,13.4c1.6,2.3,4.4,3,6.7,3
			c2.4,0,4.5-2,7.5-2c0.5,0,0.9,0,1.2,0c0.1,0,0.2,0,0.2,0"/>
		<path class="st2" d="M2.4,24.2L2.8,24c0,0,4.7-0.2,6.3-0.2c3.2,0,9.6,0.4,12.8,0.5c1.9,0,7.4-0.2,7.4-0.2l0.4,0.3"/>
	</g>
</g>
</svg>
